# xmcd
#
# Track frame offsets:
#	150
#	20824
#	42489
#	73310
#	93543
#	122690
#	140199
#	155078
#	181363
#	203487
#
# Disc length: 3335 seconds
#
# Revision: 16
# Processed by: cddbd v1.5.2PL0 Copyright (c) Steve Scherf et al.
# Submitted via: Jack! The Knife 20 Magnifico
#
DISCID=9a0d050a
DTITLE=Running Wild - The Brotherhood
DYEAR=2002
DGENRE=Metal
TTITLE0=Welcome To Hell
TTITLE1=Soulstrippers
TTITLE2=The Brotherhood
TTITLE3=Crossfire
TTITLE4=Siberian Winter
TTITLE5=Detonator
TTITLE6=Pirate Song
TTITLE7=Unation
TTITLE8=Dr. Horror
TTITLE9=The Ghost
EXTD=Rolf Kasparek
EXTT0=Rolf Kasparek
EXTT1=Rolf Kasparek
EXTT2=Rolf Kasparek
EXTT3=Rolf Kasparek
EXTT4=Rolf Kasparek
EXTT5=Rolf Kasparek
EXTT6=Rolf Kasparek
EXTT7=Rolf Kasparek
EXTT8=Rolf Kasparek
EXTT9=Rolf Kasparek
PLAYORDER=
